<svg id="Capa_1" enable-background="new 0 0 512 512" height="512" viewBox="0 0 512 512" width="512" xmlns="http://www.w3.org/2000/svg"><g><path d="m179.304 276.473c7.737-8.878 21.515-8.904 29.274 0 2.722 3.123 7.459 3.448 10.582.727 3.123-2.722 3.448-7.459.727-10.582-13.731-15.754-38.175-15.74-51.892 0-2.721 3.123-2.396 7.86.727 10.582s7.861 2.396 10.582-.727z"/><path d="m133.488 235.454-29.659-7.947c-3.999-1.068-8.113 1.302-9.186 5.303-1.072 4.001 1.302 8.114 5.303 9.186l10.744 2.879c-2.021 3.105-.876 5.049-1.214 16.86 0 4.142 3.358 7.5 7.5 7.5s7.5-3.358 7.5-7.5c-.004-4.203.016-12.481-.02-13.171l5.149 1.38c4.008 1.071 8.115-1.306 9.186-5.303 1.072-4.002-1.302-8.114-5.303-9.187z"/><path d="m293.239 232.81c-1.072-4.001-5.184-6.373-9.186-5.303l-29.659 7.947c-4.001 1.072-6.375 5.185-5.303 9.186.898 3.351 3.928 5.561 7.24 5.561 1.616 0 2.258-.41 7.095-1.637-.038.729-.006-1.063-.02 13.171 0 4.142 3.358 7.5 7.5 7.5s7.5-3.358 7.5-7.5c-.334-11.673.809-13.751-1.214-16.86l10.744-2.879c4.001-1.072 6.375-5.185 5.303-9.186z"/><path d="m16.938 319.992c0-57.02 27.014-108.19 69.739-140.79 3.293-2.513 3.925-7.219 1.413-10.512-2.513-3.292-7.219-3.925-10.512-1.413-46.26 35.298-75.639 90.792-75.639 152.715-.001 105.873 86.133 192.008 192.007 192.008 43.869 0 85.172-14.414 119.445-41.684 3.241-2.579 3.778-7.297 1.199-10.539-2.578-3.24-7.296-3.778-10.539-1.199-31.59 25.136-69.664 38.422-110.105 38.422-97.603 0-177.008-79.406-177.008-177.008z"/><path d="m505.664 70.73c-11.418-9.12-17.266-23.235-15.641-37.766.832-7.439-5.443-13.759-12.935-12.924-14.523 1.622-28.637-4.224-37.756-15.642-4.684-5.866-13.599-5.864-18.281-.001-9.12 11.418-23.234 17.264-37.766 15.641-7.458-.833-13.759 5.466-12.924 12.935 1.623 14.523-4.225 28.637-15.643 37.757-5.865 4.685-5.862 13.598 0 18.281 5.393 4.308 9.581 9.837 12.323 16.14l-21.392 21.392c-13.397-10.551-29.927-8.131-39.864 1.808l-21.956 21.956c-27.544-14.609-58.493-22.312-89.886-22.312-31.123 0-62.046 7.632-89.429 22.07-3.664 1.932-5.068 6.468-3.136 10.132 1.932 3.665 6.469 5.069 10.132 3.136 25.234-13.306 53.739-20.338 82.433-20.338 97.374 0 176.998 78.815 176.998 176.998 0 44.062-16.292 86.287-45.874 118.895-2.783 3.068-2.552 7.811.516 10.594 1.436 1.303 3.239 1.945 5.037 1.945 2.042 0 4.077-.829 5.557-2.461 32.091-35.374 49.764-81.178 49.764-128.974 0-31.394-7.703-62.344-22.312-89.886l21.956-21.956c9.903-9.903 12.391-26.415 1.808-39.864l22.629-22.629c4.214 2.569 7.971 5.857 11.029 9.686 4.604 5.762 13.686 5.75 18.28-.001 8.739-10.942 22.406-17.241 37.767-15.641 7.456.835 13.758-5.468 12.923-12.935-1.623-14.522 4.225-28.637 15.643-37.757 5.859-4.678 5.869-13.591 0-18.279zm-130.683 126.814-19.161 19.161c-15.437-24.155-35.832-44.049-58.588-58.588l19.161-19.161c5.2-5.2 13.454-5.739 19.198-1.258 14.885 11.612 28.887 25.572 40.647 40.647 4.483 5.746 3.942 14-1.257 19.199zm-17.779-61.34 30.886-30.886c3.567-3.567 9.34-3.568 12.908 0l7.623 7.623c3.567 3.566 3.568 9.341 0 12.909-12.277 12.277-22.928 22.928-30.886 30.886-6.336-7.118-13.183-13.99-20.531-20.532zm117.607-11.717c-16.944-.743-33.162 5.98-44.621 18.484-2.823-3.062-5.989-5.819-9.419-8.208 7.822-9.514 7.37-23.518-1.542-32.43l-7.623-7.622c-9.047-9.048-23.717-9.533-33.35-.738-2.945-5.252-6.701-10.005-11.159-14.1 12.501-11.456 19.218-27.67 18.481-44.618 16.935.737 33.159-5.978 44.617-18.479 11.457 12.5 27.661 19.223 44.617 18.479-.739 16.943 5.978 33.159 18.479 44.617-12.5 11.454-19.217 27.668-18.48 44.615z"/></g></svg>