<?xml version="1.0"?>
<svg xmlns="http://www.w3.org/2000/svg" xmlns:xlink="http://www.w3.org/1999/xlink" xmlns:svgjs="http://svgjs.com/svgjs" version="1.1" width="512" height="512" x="0" y="0" viewBox="0 0 512.068 512.068" style="enable-background:new 0 0 512 512" xml:space="preserve"><g><g xmlns="http://www.w3.org/2000/svg"><g><g><path d="m467.271 111.436c-3.126-4.555-9.35-5.71-13.904-2.586-4.554 3.126-5.711 9.351-2.586 13.904 5.896 8.59 11.146 17.458 15.767 26.538h-111.417c-15.101 0-30.284 3.443-43.906 9.958l-41.956 20.063c-8.434 4.03-18.105 4.031-26.537 0l-41.956-20.063c-13.623-6.515-28.806-9.958-43.907-9.958h-111.448c11.147-21.92 25.806-42.184 43.702-60.076 80.301-80.287 206.479-92.075 300.02-28.028 4.556 3.118 10.779 1.956 13.9-2.602 3.12-4.557 1.956-10.78-2.602-13.9-101.478-69.481-238.354-56.702-325.46 30.388-48.352 48.343-74.981 112.619-74.981 180.987 0 68.367 26.629 132.644 74.981 180.986 48.352 48.344 112.639 74.968 181.019 74.968s132.667-26.624 181.019-74.968c87.194-87.176 99.917-224.116 30.252-325.611zm-275.123 65.858 41.956 20.063c13.915 6.654 29.876 6.655 43.792 0l41.956-20.063c10.945-5.234 23.145-8.001 35.278-8.001h116.497c2.857 0 5.154 2.237 5.229 5.092l.593 22.624c.05 1.918-.907 3.194-1.481 3.784-.575.591-1.827 1.581-3.748 1.581-4.926 0-9.118 3.587-9.88 8.454l-6.214 39.711c-8.304 37.025-41.81 63.868-79.786 63.868-29.646 0-57.021-16.089-71.441-41.987l-19.73-35.435c-1.766-3.17-5.109-5.135-8.737-5.135h-40.862c-3.628 0-6.972 1.965-8.737 5.135l-19.73 35.436c-14.42 25.897-41.795 41.986-71.442 41.986-37.976 0-71.481-26.842-79.786-63.867l-6.214-39.712c-.762-4.867-4.954-8.454-9.88-8.454-1.921 0-3.173-.99-3.748-1.581-.575-.59-1.531-1.866-1.481-3.784l.593-22.624c.075-2.855 2.371-5.092 5.229-5.092h116.497c12.131 0 24.331 2.766 35.277 8.001zm230.73 245.611c-92.018 92-241.738 92-333.756 0-44.574-44.566-69.122-103.819-69.122-166.844 0-13.474 1.131-26.773 3.331-39.796 2.288 1.976 4.868 3.509 7.647 4.541l5.186 33.14c.032.203.07.405.114.606 4.971 22.557 17.626 42.948 35.634 57.417 18.007 14.469 40.646 22.438 63.748 22.438 36.897 0 70.968-20.023 88.916-52.257l16.871-30.3h29.105l16.871 30.3c17.948 32.233 52.019 52.257 88.916 52.257 23.102 0 45.741-7.969 63.748-22.438 18.008-14.469 30.663-34.86 35.634-57.417.044-.201.082-.403.114-.606l5.187-33.14c2.794-1.037 5.388-2.582 7.685-4.573 12.53 73.504-10.212 151.066-65.829 206.672z" fill="#ffe66d" data-original="#000000"/><path d="m420.13 88.269c1.625 3.897 5.652 6.45 9.887 6.157 4.112-.285 7.711-3.132 8.913-7.077 1.201-3.943-.219-8.325-3.484-10.834-3.35-2.575-8.122-2.745-11.637-.386-3.909 2.623-5.491 7.788-3.679 12.14z" fill="#ffe66d" data-original="#000000"/><path d="m319.316 342.175c-34.913 34.906-91.722 34.906-126.635 0-3.905-3.906-10.237-3.905-14.142.001-3.905 3.905-3.904 10.237.001 14.142 21.355 21.352 49.407 32.027 77.458 32.027 28.052 0 56.103-10.676 77.458-32.027 3.905-3.904 3.906-10.236.001-14.142-3.902-3.905-10.235-3.906-14.141-.001z" fill="#ffe66d" data-original="#000000"/></g></g></g></g></svg>
