<?xml version="1.0"?>
<svg xmlns="http://www.w3.org/2000/svg" xmlns:xlink="http://www.w3.org/1999/xlink" xmlns:svgjs="http://svgjs.com/svgjs" version="1.1" width="512" height="512" x="0" y="0" viewBox="0 0 512 512" style="enable-background:new 0 0 512 512" xml:space="preserve" class=""><g><g xmlns="http://www.w3.org/2000/svg"><path d="m179.923 209.31c-4.142 0-7.5 3.358-7.5 7.5v14.619c0 4.142 3.358 7.5 7.5 7.5s7.5-3.358 7.5-7.5v-14.619c0-4.143-3.358-7.5-7.5-7.5z" fill="#ff6b6b" data-original="#000000" class=""/><path d="m332.077 209.31c-4.142 0-7.5 3.358-7.5 7.5v14.619c0 4.142 3.358 7.5 7.5 7.5s7.5-3.358 7.5-7.5v-14.619c0-4.143-3.358-7.5-7.5-7.5z" fill="#ff6b6b" data-original="#000000" class=""/><path d="m280.984 225.339c-3.122-2.721-7.86-2.396-10.582.727-7.612 8.736-21.171 8.763-28.806 0-2.721-3.123-7.459-3.448-10.582-.727s-3.448 7.458-.727 10.582c13.605 15.613 37.83 15.598 51.423 0 2.723-3.123 2.397-7.86-.726-10.582z" fill="#ff6b6b" data-original="#000000" class=""/><path d="m409.605 127.566h-38.895c-11.907 0-21.593 9.687-21.593 21.594v19.162c0 4.492-3.65 8.146-8.136 8.146h-35.799c-4.492 0-8.146-3.654-8.146-8.146v-19.162c0-10.275-7.216-18.881-16.84-21.051v-20.619h101.194c12.99 0 20.595-14.67 13.101-25.285l-14.199-20.111 14.199-20.112c7.492-10.612-.106-25.285-13.101-25.285h-102.39c-3.164-9.682-12.276-16.697-23-16.697-13.342 0-24.196 10.854-24.196 24.196v103.913c-9.624 2.171-16.839 10.777-16.839 21.051v19.162c0 4.492-3.654 8.146-8.146 8.146h-35.8c-4.486 0-8.136-3.654-8.136-8.146v-19.162c0-11.907-9.687-21.594-21.593-21.594h-38.895c-11.907 0-21.594 9.687-21.594 21.594v22.307c0 17.539 5.185 34.499 14.995 49.048l36.365 53.927-4.176 31.741c-.54 4.106 2.351 7.874 6.458 8.414 4.103.536 7.874-2.352 8.414-6.458l3.688-28.034h218.91l10.904 82.888c.538 4.092 4.29 6.999 8.414 6.458 4.107-.541 6.998-4.308 6.458-8.414l-11.392-86.594 36.365-53.928c9.809-14.55 14.994-31.51 14.994-49.047v-22.308c.001-11.907-9.686-21.594-21.593-21.594zm-27.369-94.236-17.253 24.438c-1.831 2.593-1.831 6.058 0 8.651l17.253 24.437c.491.694.005 1.634-.847 1.634h-101.193v-60.794h101.194c.85 0 1.339.939.846 1.634zm-126.236-18.33c5.071 0 9.196 4.125 9.196 9.196v103.37h-18.392v-103.37c0-5.071 4.125-9.196 9.196-9.196zm160.199 156.467c0 14.539-4.299 28.599-12.431 40.661l-35.723 52.977h-224.089l-35.723-52.976c-8.133-12.062-12.432-26.123-12.432-40.662v-22.307c0-3.636 2.958-6.594 6.594-6.594h38.895c3.636 0 6.593 2.958 6.593 6.594v19.162c0 12.763 10.378 23.146 23.136 23.146h35.8c12.763 0 23.146-10.383 23.146-23.146v-19.162c0-3.636 2.953-6.594 6.583-6.594 2.093 0 39.027 0 38.904 0 3.63 0 6.583 2.958 6.583 6.594v19.162c0 12.763 10.383 23.146 23.146 23.146h35.799c12.757 0 23.136-10.383 23.136-23.146v-19.162c0-3.636 2.958-6.594 6.593-6.594h38.895c3.636 0 6.594 2.958 6.594 6.594v22.307z" fill="#ff6b6b" data-original="#000000" class=""/><path d="m425.482 464.553c-2.148-14.806-11.928-27.021-24.958-32.874l-5.347-40.642c-.541-4.106-4.309-6.999-8.414-6.458-4.107.541-6.998 4.308-6.458 8.414l4.603 34.987c-1.644-.066 2.309-.022-74.844-.035v-46.401c0-29.811-24.253-54.064-54.064-54.064s-54.064 24.253-54.064 54.064v46.401h-73.117c-.576 0-1.152.012-1.727.035l11.819-89.841c.54-4.106-2.351-7.874-6.458-8.414-4.104-.542-7.874 2.351-8.414 6.458l-12.563 95.496c-13.03 5.853-22.811 18.068-24.958 32.874l-2.167 14.943c-2.488 17.145 10.824 32.504 28.128 32.504h287.042c17.324 0 30.613-15.376 28.129-32.504zm-208.546-83.009c0-21.54 17.524-39.064 39.064-39.064s39.064 17.524 39.064 39.064v46.401h-78.128zm182.585 115.456h-287.042c-8.182 0-14.458-7.262-13.285-15.351l2.167-14.943c1.678-11.568 10.536-20.716 21.643-23.131 6.496-1.398 7.325-.137 86.431-.631h173.746c13.647 0 25.488 10.186 27.457 23.761l2.167 14.943c1.175 8.098-5.112 15.352-13.284 15.352z" fill="#ff6b6b" data-original="#000000" class=""/></g></g></svg>
