<?xml version="1.0"?>
<svg xmlns="http://www.w3.org/2000/svg" xmlns:xlink="http://www.w3.org/1999/xlink" xmlns:svgjs="http://svgjs.com/svgjs" version="1.1" width="512" height="512" x="0" y="0" viewBox="0 0 511.982 511.982" style="enable-background:new 0 0 512 512" xml:space="preserve" class=""><g><g xmlns="http://www.w3.org/2000/svg"><g><g><path d="m450.237 209.92c-3.258-.711-6.659.251-9.063 2.564l-42.811 41.195-56.745-28.94c-2.368-1.209-5.119-1.424-7.644-.599l-30.093 9.815c2.997-15.527 7.086-30.01 12.091-42.797 8.136 2.715 16.895 4.127 25.806 4.127 10.252 0 20.159-1.842 29.149-5.32.286.596.623 1.172 1.029 1.709 1.832 2.422 4.665 3.88 7.7 3.964l72.378 1.999c.093.003.186.004.278.004 3.935 0 7.516-2.312 9.128-5.92 1.65-3.692.914-8.016-1.866-10.953l-13.964-14.757c17.244-9.451 28.094-25.54 28.094-43.125 0-23.464-18.891-43.466-45.446-49.768.113-1.314.17-2.635.17-3.959 0-30.602-30.461-55.497-67.903-55.497-15.026 0-29.61 4.094-41.38 11.442-14.962-15.678-38.238-25.104-63.154-25.104s-48.192 9.426-63.153 25.105c-11.77-7.349-26.354-11.442-41.38-11.442-37.442 0-67.903 24.896-67.903 55.497 0 1.324.057 2.645.17 3.959-26.556 6.302-45.446 26.304-45.446 49.768 0 19.293 13.165 37.031 33.785 45.903l33.754 48.281c1.887 2.699 4.959 4.271 8.193 4.271.471 0 .944-.033 1.418-.101 3.733-.534 6.85-3.124 8.058-6.697l9.55-28.248c10.928 5.845 23.717 8.991 37.168 8.991 8.915 0 17.677-1.414 25.816-4.131 6.276 16.007 11.059 34.519 14.109 54.531l-53.379-18.07c-1.721-.583-3.566-.687-5.338-.299l-72.269 15.766-10.867-17.387c-2.057-3.291-5.837-5.104-9.685-4.627-3.854.468-7.088 3.122-8.297 6.811-12.288 37.467-14.127 77.618-5.319 116.115 9.056 39.582 29.09 75.751 57.937 104.598 29.139 29.14 65.705 49.264 105.744 58.195.733.164 1.466.242 2.188.242 4.58 0 8.711-3.168 9.75-7.824 1.203-5.391-2.192-10.735-7.582-11.938-36.327-8.104-69.509-26.368-95.957-52.818-47.363-47.361-66.939-114.163-53.55-178.651l2.409 3.854c2.238 3.582 6.491 5.369 10.611 4.471l76.437-16.675 82.256 27.847c2.046.693 4.257.706 6.308.035l94.702-30.89 59.393 30.291c3.797 1.938 8.405 1.253 11.477-1.702l36.727-35.342c21.296 69.195 2.873 144.992-48.897 196.762-26.447 26.448-59.626 44.712-95.947 52.816-5.391 1.202-8.785 6.547-7.582 11.938s6.558 8.784 11.938 7.582c40.034-8.933 76.597-29.056 105.734-58.193 61.003-61.003 79.978-152.292 48.341-232.568-1.226-3.106-3.916-5.395-7.176-6.106zm-57.542-33.928 7.357-29.027 28.401 30.015zm-281.821 13.407-16.631-23.789 28.102-10.142zm28.694-22.427 8.367-24.749c1.229-3.637.268-7.657-2.475-10.345-2.743-2.687-6.78-3.566-10.394-2.264l-56.232 20.293c-12.587-5.802-20.556-16.132-20.556-27.021 0-15.881 16.79-29.767 38.224-31.612 3.081-.265 5.865-1.941 7.543-4.539 1.678-2.599 2.059-5.826 1.031-8.743-1.01-2.869-1.521-5.841-1.521-8.832 0-19.573 21.489-35.497 47.903-35.497 14.027 0 27.335 4.606 36.512 12.638 2.146 1.878 4.991 2.752 7.825 2.397 2.831-.354 5.376-1.899 6.995-4.248 10.392-15.082 30.778-24.45 53.201-24.45s42.809 9.368 53.201 24.45c1.619 2.349 4.164 3.895 6.995 4.248 2.833.351 5.679-.519 7.825-2.397 9.177-8.031 22.484-12.638 36.512-12.638 26.414 0 47.903 15.924 47.903 35.497 0 2.991-.512 5.963-1.521 8.832-1.027 2.917-.646 6.145 1.031 8.743 1.678 2.598 4.462 4.274 7.543 4.539 21.434 1.846 38.224 15.731 38.224 31.612 0 11.577-8.856 22.313-22.518 27.882l-29.098-30.751c-2.507-2.649-6.257-3.725-9.784-2.804-3.528.919-6.277 3.686-7.173 7.22l-10.392 41.002c-8.961 6.365-20.548 9.85-32.96 9.85-9.509 0-18.709-2.091-26.605-6.046-3.835-1.919-8.466-1.184-11.512 1.833-11.482 11.36-28.857 17.876-47.67 17.876s-36.188-6.516-47.67-17.876c-3.048-3.016-7.677-3.751-11.512-1.833-7.896 3.955-17.097 6.046-26.605 6.046-11.227.001-22.059-2.984-30.637-8.313zm98.917 88.314-7.183-2.432c-2.183-17.896-5.669-34.895-10.301-50.424 10.743 4.239 22.661 6.519 34.99 6.519 12.334 0 24.258-2.282 35.005-6.525-3.597 12.064-6.513 25.031-8.651 38.556z" fill="#ff6b6b" data-original="#000000" class=""/><path d="m265.22 498.17c-1.658-3.982-5.818-6.518-10.123-6.125-4.132.377-7.686 3.355-8.761 7.366-1.067 3.978.489 8.317 3.833 10.72 3.386 2.433 8.082 2.471 11.507.094 3.838-2.663 5.314-7.742 3.544-12.055z" fill="#ff6b6b" data-original="#000000" class=""/><path d="m373.389 336.738v-19.119c0-19.67-16.003-35.673-35.673-35.673s-35.673 16.003-35.673 35.673v19.119c0 19.67 16.003 35.673 35.673 35.673s35.673-16.003 35.673-35.673zm-51.345 0v-19.119c0-8.642 7.031-15.673 15.673-15.673s15.673 7.031 15.673 15.673v19.119c0 8.642-7.031 15.673-15.673 15.673s-15.673-7.031-15.673-15.673z" fill="#ff6b6b" data-original="#000000" class=""/><path d="m209.938 336.738v-19.119c0-19.67-16.003-35.673-35.673-35.673s-35.673 16.003-35.673 35.673v19.119c0 19.67 16.003 35.673 35.673 35.673s35.673-16.003 35.673-35.673zm-20 0c0 8.642-7.031 15.673-15.673 15.673s-15.673-7.031-15.673-15.673v-19.119c0-8.642 7.031-15.673 15.673-15.673s15.673 7.031 15.673 15.673z" fill="#ff6b6b" data-original="#000000" class=""/><path d="m205.147 429.868c28.035-28.035 73.652-28.035 101.688 0 1.953 1.952 4.512 2.929 7.071 2.929s5.118-.977 7.071-2.929c3.905-3.905 3.905-10.237 0-14.143-35.834-35.834-94.139-35.834-129.973 0-3.905 3.905-3.905 10.237 0 14.143 3.907 3.904 10.237 3.904 14.143 0z" fill="#ff6b6b" data-original="#000000" class=""/><path d="m347.428 127.948c1.912 2.13 4.626 3.321 7.442 3.321.484 0 .971-.035 1.457-.106 3.317-.488 6.17-2.607 7.596-5.643l25.061-53.361c1.454-3.098 1.225-6.724-.61-9.612s-5.02-4.639-8.441-4.639h-72.941c-3.946 0-7.523 2.321-9.132 5.925s-.946 7.816 1.688 10.754zm16.76-50.04-11.952 25.45-22.837-25.45z" fill="#ff6b6b" data-original="#000000" class=""/><path d="m269.97 128.924c1.477-3.755.552-8.029-2.346-10.839l-53.532-51.906c-2.318-2.248-5.582-3.239-8.76-2.657-3.178.581-5.88 2.662-7.253 5.586l-25.141 53.532c-1.47 3.131-1.218 6.799.666 9.699 1.848 2.843 5.005 4.552 8.385 4.552.069 0 .139-.001.208-.002l78.673-1.626c4.035-.084 7.624-2.583 9.1-6.339zm-72.08-12.364 12.338-26.27 26.27 25.472z" fill="#ff6b6b" data-original="#000000" class=""/></g></g></g></g></svg>
