<?xml version="1.0"?>
<svg xmlns="http://www.w3.org/2000/svg" xmlns:xlink="http://www.w3.org/1999/xlink" xmlns:svgjs="http://svgjs.com/svgjs" version="1.1" width="512" height="512" x="0" y="0" viewBox="0 0 512 512" style="enable-background:new 0 0 512 512" xml:space="preserve" class=""><g>
<g xmlns="http://www.w3.org/2000/svg">
	<g>
		<path d="M256,481c-3.525,0-7.05-1.237-9.877-3.711c-22.495-19.683-43.62-37.647-64.049-55.019C72.433,329.033,0,267.438,0,177.515    C0,97.002,57.402,31,136,31c42.363,0,79.169,20.342,106.439,58.828c5.371,7.58,9.861,15.151,13.561,22.188    c3.699-7.036,8.19-14.608,13.561-22.188C296.831,51.342,333.637,31,376,31c78.609,0,136,66.015,136,146.515    c0,89.922-72.433,151.517-182.072,244.753c-20.43,17.373-41.555,35.337-64.05,55.021C263.05,479.763,259.525,481,256,481z M136,61    C75.57,61,30,111.091,30,177.515c0,76.053,68.23,134.074,171.508,221.9c17.5,14.882,35.509,30.196,54.492,46.685    c18.983-16.49,36.992-31.804,54.493-46.687C413.771,311.589,482,253.568,482,177.515C482,111.091,436.43,61,376,61    c-32.423,0-59.835,15.305-81.476,45.491c-17.069,23.81-23.999,48.26-24.066,48.505c-1.807,6.488-7.721,10.99-14.454,10.99    c-0.01,0-0.02,0-0.029,0c-6.736-0.013-12.64-4.5-14.433-10.99c-0.068-0.244-6.998-24.695-24.067-48.505    C195.835,76.305,168.422,61,136,61z" fill="#ff6b6b" data-original="#000000" class=""/>
	</g>
</g>















</g></svg>
