<?xml version="1.0"?>
<svg xmlns="http://www.w3.org/2000/svg" xmlns:xlink="http://www.w3.org/1999/xlink" xmlns:svgjs="http://svgjs.com/svgjs" version="1.1" width="512" height="512" x="0" y="0" viewBox="0 0 512.068 512.068" style="enable-background:new 0 0 512 512" xml:space="preserve" class=""><g><g xmlns="http://www.w3.org/2000/svg"><g><path d="m467.271 111.437c-3.126-4.554-9.35-5.71-13.904-2.585s-5.711 9.35-2.586 13.904c64.214 93.553 52.479 219.784-27.902 300.15-92.018 92-241.738 92-333.756 0-44.575-44.566-69.123-103.819-69.123-166.845s24.548-122.278 69.122-166.844c80.301-80.287 206.48-92.076 300.021-28.028 4.556 3.118 10.779 1.956 13.9-2.602 3.12-4.557 1.956-10.781-2.602-13.9-101.479-69.483-238.355-56.702-325.46 30.387-48.352 48.343-74.981 112.619-74.981 180.987s26.629 132.644 74.981 180.987 112.639 74.968 181.019 74.968 132.667-26.624 181.019-74.967c87.194-87.178 99.917-224.117 30.252-325.612z" fill="#ffe66d" data-original="#000000" class=""/><path d="m420.13 88.27c1.622 3.958 5.78 6.51 10.05 6.143 4.035-.347 7.539-3.151 8.733-7.023 1.221-3.961-.187-8.346-3.467-10.873-3.35-2.582-8.12-2.737-11.637-.386-3.913 2.615-5.49 7.793-3.679 12.139z" fill="#ffe66d" data-original="#000000" class=""/><path d="m114.699 291.345v.328c0 .135.01.267.011.401.061 11.51 1.502 22.942 4.303 33.984 7.534 29.78 25.004 56.749 49.19 75.942s.001 0 .001.001c.001 0 .001.001.002.001 0 0 .001 0 .001.001 25.195 20.004 55.553 30.578 87.793 30.578 32.242 0 62.602-10.575 87.798-30.581.002-.002.004-.004.006-.005 24.183-19.191 41.649-46.159 49.182-75.931 2.803-11.053 4.244-22.49 4.304-34.006.002-.137.011-.273.011-.411v-21.725c0-5.523-4.478-10-10-10h-262.603c-5.523 0-10 4.477-10 10v21.381.01c0 .011.001.022.001.032zm141.301 121.236c-24.028 0-46.836-6.84-66.581-19.875 17.818-17.144 41.55-26.797 66.581-26.797s48.763 9.654 66.581 26.797c-19.744 13.036-42.553 19.875-66.581 19.875zm82.429-32.328c-21.731-21.938-51.243-34.345-82.429-34.345s-60.697 12.407-82.429 34.345c-14.696-13.643-25.893-30.826-32.371-49.706 4.887 1.966 10.218 3.059 15.8 3.059h198c5.583 0 10.914-1.093 15.801-3.059-6.478 18.879-17.675 36.063-32.372 49.706zm38.873-100.329v11.39c0 .228-.009.455-.01.683-.233 11.949-10.15 21.61-22.291 21.61h-198.001c-12.161 0-22.091-9.692-22.292-21.687-.001-.192-.009-.383-.009-.574v-11.421h242.603z" fill="#ffe66d" data-original="#000000" class=""/><path d="m402.217 214c0-30.149-24.532-54.677-54.686-54.677s-54.685 24.528-54.685 54.677c0 5.523 4.478 10 10 10s10-4.477 10-10c0-19.121 15.56-34.677 34.686-34.677s34.686 15.556 34.686 34.677c0 5.523 4.478 10 10 10s9.999-4.477 9.999-10z" fill="#ffe66d" data-original="#000000" class=""/><path d="m129.783 214c0-19.121 15.56-34.677 34.686-34.677s34.686 15.556 34.686 34.677c0 5.523 4.477 10 10 10s10-4.477 10-10c0-30.149-24.532-54.677-54.686-54.677s-54.686 24.528-54.686 54.677c0 5.523 4.477 10 10 10s10-4.477 10-10z" fill="#ffe66d" data-original="#000000" class=""/></g></g></g></svg>
